# xmcd
#
# Track frame offsets: 
#        150
#        20190
#        35565
#        50633
#        65462
#        79794
#        95552
#        111279
#        125439
#        142471
#        157809
#        170034
#        187629
#        205291
#        221026
#        236746
#        251109
#
# Disc length: 3511 seconds
#
# Revision: 2
# Processed by: cddbd v1.5.2PL0 Copyright (c) Steve Scherf et al.
# Submitted via: ExactAudioCopy v1.0b3
#
DISCID=030db511
DTITLE=Pandora - Mas Pandora Que Nunca
DYEAR=2019
DGENRE=Latin
TTITLE0=Corre
TTITLE1=Me Vas A Extrañar
TTITLE2=El Amor De Su Vida
TTITLE3=Cuando Me Enamoro
TTITLE4=Me Muero
TTITLE5=Donde Esta El Amor
TTITLE6=Mientes Tan Bien
TTITLE7=Todo Cambio
TTITLE8=Darte Un Beso
TTITLE9=Adios Amor
TTITLE10=Creo En Ti
TTITLE11=Me Dedique A Perderte
TTITLE12=Te Dejo En Libertad
TTITLE13=Pandora feat. Joss Favela - Me Vas A Extrañar
TTITLE14=Pandora feat. Sin Bandera - Mientes Tan Bien
TTITLE15=Pandora feat. Natalia Jimenez - Me Muero
TTITLE16=Pandora feat. Reik - Creo En Ti
EXTD=
EXTT0=
EXTT1=
EXTT2=
EXTT3=
EXTT4=
EXTT5=
EXTT6=
EXTT7=
EXTT8=
EXTT9=
EXTT10=
EXTT11=
EXTT12=
EXTT13=
EXTT14=
EXTT15=
EXTT16=
PLAYORDER=
